<svg width="57" height="88" viewBox="0 0 57 88" fill="none" xmlns="http://www.w3.org/2000/svg">
<g filter="url(#filter0_d)">
<rect y="-6.10352e-05" width="49" height="80" rx="16" fill="#B5DB48"/>
<path fill-rule="evenodd" clip-rule="evenodd" d="M28.5463 52.9999C29.2963 52.9999 29.9563 52.5899 30.2963 51.9699L33.8763 45.4799C34.2463 44.8199 33.7663 43.9999 33.0063 43.9999H18.2063L17.2663 41.9999H13.9963V43.9999H15.9963L19.5963 51.5899L18.2463 54.0299C17.5163 55.3699 18.4763 56.9999 19.9963 56.9999H31.9963V54.9999H19.9963L21.0963 52.9999H28.5463ZM18.0063 59.9999C18.0063 58.8999 18.8963 57.9999 19.9963 57.9999C21.0963 57.9999 21.9963 58.8999 21.9963 59.9999C21.9963 61.0999 21.0963 61.9999 19.9963 61.9999C18.8963 61.9999 18.0063 61.0999 18.0063 59.9999ZM28.0063 59.9999C28.0063 58.8999 28.8963 57.9999 29.9963 57.9999C31.0963 57.9999 31.9963 58.8999 31.9963 59.9999C31.9963 61.0999 31.0963 61.9999 29.9963 61.9999C28.8963 61.9999 28.0063 61.0999 28.0063 59.9999ZM31.3063 45.9999H19.1563L21.5263 50.9999H28.5463L31.3063 45.9999Z" fill="white"/>
<path d="M28.59 26.2949L24 30.8749L19.41 26.2949L18 27.7049L24 33.7049L30 27.7049L28.59 26.2949Z" fill="white" fill-opacity="0.6"/>
<path d="M28.59 20.2949L24 24.8749L19.41 20.2949L18 21.7049L24 27.7049L30 21.7049L28.59 20.2949Z" fill="white" fill-opacity="0.4"/>
<path d="M28.59 14.2949L24 18.8749L19.41 14.2949L18 15.7049L24 21.7049L30 15.7049L28.59 14.2949Z" fill="white" fill-opacity="0.2"/>
</g>
<defs>
<filter id="filter0_d" x="0" y="-6.10352e-05" width="57" height="88" filterUnits="userSpaceOnUse" color-interpolation-filters="sRGB">
<feFlood flood-opacity="0" result="BackgroundImageFix"/>
<feColorMatrix in="SourceAlpha" type="matrix" values="0 0 0 0 0 0 0 0 0 0 0 0 0 0 0 0 0 0 127 0"/>
<feOffset dx="4" dy="4"/>
<feGaussianBlur stdDeviation="2"/>
<feColorMatrix type="matrix" values="0 0 0 0 0 0 0 0 0 0 0 0 0 0 0 0 0 0 0.12 0"/>
<feBlend mode="normal" in2="BackgroundImageFix" result="effect1_dropShadow"/>
<feBlend mode="normal" in="SourceGraphic" in2="effect1_dropShadow" result="shape"/>
</filter>
</defs>
</svg>
